#!OML:ASF F:\VICON\USERDATA\INSTALL\rory3\rory3.ASF
:FULLY-SPECIFIED
:DEGREES
538
root 1.55288 17.8804 5.29112 -3.46468 -2.87833 361.533
lowerback 20.0451 -0.350381 -2.76683
upperback 1.24114 -0.682345 3.91625
thorax -9.82087 -0.100975 6.1073
lowerneck -11.2771 -1.3457 -3.09234
upperneck 21.4225 -0.461043 -3.55274
head 8.54187 -0.833467 -0.725166
rclavicle 9.74045e-015 1.11319e-014
rhumerus -60.3893 -36.2884 -38.8098
rradius 64.9382
rwrist -35.5539
rhand -14.0985 -4.55268
rfingers 7.12502
rthumb 12.0341 -34.1867
lclavicle 9.74045e-015 1.11319e-014
lhumerus -50.9672 9.9689 77.2235
lradius 49.2214
lwrist 7.88009
lhand -10.4156 48.7276
lfingers 7.12502
lthumb 15.5834 78.1198
rfemur -15.0221 1.13437 18.7633
rtibia 41.8366
rfoot -19.7977 -12.0957
rtoes 14.957
lfemur -9.46002 -4.41951 -26.2429
ltibia 32.3866
lfoot -14.8861 1.20634
ltoes 0.538343
539
root 1.55716 17.8821 5.27841 -3.36767 -3.27662 361.114
lowerback 19.9695 -0.469998 -2.33639
upperback 1.36 -0.748252 3.89285
thorax -9.64395 -0.160468 5.84113
lowerneck -11.507 -1.46557 -3.06523
upperneck 21.2753 -0.70107 -3.22815
head 8.53282 -0.910807 -0.64669
rclavicle -2.04748e-014 2.22639e-014
rhumerus -61.1488 -36.3834 -37.843
rradius 66.2998
rwrist -37.8229
rhand -12.1291 -4.86226
rfingers 7.12502
rthumb 13.9326 -34.3755
lclavicle -2.04748e-014 2.22639e-014
lhumerus -51.0393 10.2051 76.8114
lradius 49.1754
lwrist 7.75998
lhand -10.3888 48.9385
lfingers 7.12502
lthumb 15.6092 78.3287
rfemur -15.2283 0.998986 19.2563
rtibia 41.9169
rfoot -19.9019 -12.3
rtoes 13.9752
lfemur -9.65765 -4.14033 -25.7548
ltibia 32.4501
lfoot -14.866 1.34001
ltoes 0.511237
540
root 1.56713 17.88 5.26905 -3.28218 -3.63712 361.188
lowerback 19.9144 -0.542489 -2.39081
upperback 1.33863 -0.866331 3.79238
thorax -9.6239 -0.217393 5.79138
lowerneck -11.4006 -1.55884 -3.1103
upperneck 21.085 -0.900708 -2.92891
head 8.44901 -0.974396 -0.557058
rclavicle 1.25234e-014 -2.06736e-014
rhumerus -62.0476 -36.2636 -36.5854
rradius 67.4996
rwrist -39.8458
rhand -9.03035 -4.56744
rfingers 7.12502
rthumb 16.9172 -33.8506
lclavicle 1.25234e-014 -2.06736e-014
lhumerus -51.4259 10.338 76.5351
lradius 49.2456
lwrist 7.96723
lhand -10.3364 49.1521
lfingers 7.12502
lthumb 15.6597 78.5383
rfemur -15.4563 0.443127 19.1531
rtibia 42.0456
rfoot -20.137 -12.5064
rtoes 10.6692
lfemur -9.80977 -3.912 -25.8545
ltibia 32.5149
lfoot -14.923 1.53716
ltoes -0.0244603
541
root 1.57596 17.8739 5.26284 -3.13608 -3.92181 361.503
lowerback 19.8175 -0.613688 -2.71049
upperback 1.24632 -1.04358 3.65876
thorax -9.64877 -0.288843 5.87567
lowerneck -11.2484 -1.66266 -3.07847
upperneck 20.9476 -1.08229 -2.84916
head 8.3742 -1.04684 -0.551997
rclavicle -3.77691e-015 2.06736e-014
rhumerus -62.7669 -35.9707 -35.4286
rradius 68.5479
rwrist -41.7054
rhand -6.19579 -4.56882
rfingers 7.12502
rthumb 19.6441 -33.5963
lclavicle -3.77691e-015 2.06736e-014
lhumerus -51.7525 10.4923 76.2797
lradius 49.0366
lwrist 8.02831
lhand -10.3111 49.3644
lfingers 7.12502
lthumb 15.684 78.7488
rfemur -15.8106 -0.261258 18.761
rtibia 42.2341
rfoot -20.6245 -12.8033
rtoes 6.71855
lfemur -9.98672 -3.69433 -26.2211
ltibia 32.5534
lfoot -15.0384 1.73757
ltoes -0.743098
542
root 1.58147 17.873 5.24608 -3.03362 -4.13684 361.51
lowerback 19.9606 -0.756518 -2.88588
upperback 1.19926 -1.2692 3.69547
thorax -9.74848 -0.38335 6.08888
lowerneck -11.364 -1.80392 -3.30353
upperneck 20.8387 -1.27856 -2.63682
head 8.3625 -1.1354 -0.464439
rclavicle 1.51076e-014 0
rhumerus -62.9146 -35.6477 -34.5966
rradius 69.3696
rwrist -43.5807
rhand -4.76191 -4.95907
rfingers 7.12502
rthumb 21.0222 -33.8397
lclavicle 1.51076e-014 0
lhumerus -52.0233 10.969 76.04
lradius 48.9626
lwrist 8.11059
lhand -10.4505 49.4567
lfingers 7.12502
lthumb 15.5497 78.8515
rfemur -16.0999 -0.78758 18.7392
rtibia 42.4296
rfoot -21.2144 -13.1049
rtoes 3.97601
lfemur -10.1549 -3.42457 -26.2184
ltibia 32.5724
lfoot -15.0265 1.7953
ltoes -1.60354
543
root 1.58256 17.8734 5.22924 -2.87599 -4.48691 361.388
lowerback 20.0486 -0.830211 -2.98237
upperback 1.2238 -1.38808 3.71752
thorax -9.75205 -0.435638 6.20557
lowerneck -11.7915 -1.95253 -3.29363
upperneck 20.823 -1.51015 -2.44368
head 8.43688 -1.22696 -0.430787
rclavicle 1.47101e-014 -4.6118e-014
rhumerus -62.9919 -35.594 -33.9138
rradius 70.1214
rwrist -45.3002
rhand -3.868 -5.37629
rfingers 7.12502
rthumb 21.8807 -34.1591
lclavicle 1.47101e-014 -4.6118e-014
lhumerus -52.0619 11.217 75.8778
lradius 48.9049
lwrist 8.43305
lhand -10.845 49.9201
lfingers 7.12502
lthumb 15.1698 79.3441
rfemur -16.4158 -1.21271 18.8926
rtibia 42.6127
rfoot -21.7007 -13.3455
rtoes 2.38728
lfemur -10.4061 -3.08148 -26.0441
ltibia 32.6298
lfoot -14.9984 1.81324
ltoes -1.73414
544
root 1.58356 17.8776 5.21509 -2.77193 -4.91904 361.377
lowerback 20.1814 -0.833641 -3.05925
upperback 1.22621 -1.42215 3.62317
thorax -9.81889 -0.448628 6.16025
lowerneck -12.2096 -2.12928 -3.18774
upperneck 21.0242 -1.79862 -2.24812
head 8.58235 -1.34009 -0.421231
rclavicle 5.76476e-015 4.77083e-015
rhumerus -63.287 -35.5578 -33.1335
rradius 70.7561
rwrist -46.999
rhand -2.11745 -5.47004
rfingers 7.12502
rthumb 23.5607 -34.0468
lclavicle 5.76476e-015 4.77083e-015
lhumerus -52.0978 11.3583 75.5967
lradius 48.7798
lwrist 8.77674
lhand -10.963 50.3617
lfingers 7.12502
lthumb 15.0561 79.7942
rfemur -16.7076 -1.69802 18.9313
rtibia 42.7992
rfoot -22.0391 -13.8059
rtoes 1.86411
lfemur -10.6408 -2.76297 -25.9831
ltibia 32.701
lfoot -15.03 1.85379
ltoes -1.51788
545
root 1.58468 17.8813 5.19918 -2.72713 -5.38862 361.185
lowerback 20.3479 -0.862006 -2.91298
upperback 1.21499 -1.43674 3.54753
thorax -9.92709 -0.460255 6.00315
lowerneck -11.9383 -2.36774 -3.26651
upperneck 20.7209 -2.21596 -1.86898
head 8.43608 -1.49925 -0.319688
rclavicle 2.26615e-014 -2.38542e-015
rhumerus -63.6582 -35.5913 -32.1516
rradius 71.161
rwrist -48.925
rhand 0.721309 -5.75843
rfingers 7.12502
rthumb 26.2811 -33.9581
lclavicle 2.26615e-014 -2.38542e-015
lhumerus -52.2294 11.3101 75.3546
lradius 48.696
lwrist 9.10956
lhand -11.1713 50.4531
lfingers 7.12502
lthumb 14.8554 79.9006
rfemur -16.9081 -2.03451 19.1916
rtibia 43.0184
rfoot -22.6162 -14.5958
rtoes 2.3206
lfemur -10.7696 -2.68597 -25.7444
ltibia 32.7636
lfoot -15.0899 2.0864
ltoes -0.480654
546
root 1.58632 17.8846 5.18505 -2.6054 -5.96481 361.165
lowerback 20.36 -0.850347 -3.01232
upperback 1.20444 -1.45127 3.48781
thorax -9.94285 -0.463741 5.99899
lowerneck -11.8649 -2.62719 -3.51826
upperneck 20.5782 -2.63107 -1.40591
head 8.38741 -1.66613 -0.165511
rclavicle -1.64991e-014 -7.95139e-016
rhumerus -63.8185 -35.7036 -31.1968
rradius 71.3576
rwrist -50.9727
rhand 3.76283 -5.75449
rfingers 7.12502
rthumb 29.1892 -33.4855
lclavicle -1.64991e-014 -7.95139e-016
lhumerus -52.3408 11.2456 75.2309
lradius 48.6135
lwrist 9.51837
lhand -11.4037 50.3048
lfingers 7.12502
lthumb 14.6315 79.7686
rfemur -17.2177 -2.37598 19.248
rtibia 43.3046
rfoot -23.36 -15.4494
rtoes 4.35147
lfemur -10.9339 -2.45667 -25.7131
ltibia 32.7453
lfoot -15.1089 2.50656
ltoes -0.931987
547
root 1.59252 17.8859 5.17293 -2.55428 -6.39541 361.17
lowerback 20.3962 -0.948673 -3.12671
upperback 1.26023 -1.61359 3.44598
thorax -9.87829 -0.540513 6.06312
lowerneck -12.0595 -2.76223 -3.55923
upperneck 20.6038 -2.84812 -1.19555
head 8.43742 -1.75147 -0.115219
rclavicle -9.93923e-015 1.82882e-014
rhumerus -63.6626 -35.6313 -30.6602
rradius 71.6704
rwrist -53.2722
rhand 6.38891 -5.59677
rfingers 7.12502
rthumb 31.6938 -32.8636
lclavicle -9.93923e-015 1.82882e-014
lhumerus -52.3221 11.5401 74.9826
lradius 48.5196
lwrist 9.85397
lhand -11.1692 50.4117
lfingers 7.12502
lthumb 14.8574 79.859
rfemur -17.3732 -3.11282 19.2457
rtibia 43.6298
rfoot -24.2828 -16.4629
rtoes 5.41287
lfemur -10.975 -2.2976 -25.7477
ltibia 32.6911
lfoot -15.1395 2.87029
ltoes -1.22713
